<svg width="48" height="48" viewBox="0 0 48 48" fill="none" xmlns="http://www.w3.org/2000/svg">
<g clip-path="url(#clip0_4_149)">
<g clip-path="url(#clip1_4_149)">
<g clip-path="url(#clip2_4_149)">
<path d="M24 48C37.2548 48 48 37.2548 48 24C48 10.7452 37.2548 0 24 0C10.7452 0 0 10.7452 0 24C0 37.2548 10.7452 48 24 48Z" fill="#0B4372"/>
<path fill-rule="evenodd" clip-rule="evenodd" d="M15.3808 3.68524L15.6742 4.20939L14.6926 4.75895L13.8008 3.16593L14.3532 2.91118C19.3031 0.628728 25.0642 0.0428632 30.7147 1.66522C31.6835 1.94351 32.621 2.27807 33.5247 2.66472L34.0529 2.89072L33.3401 4.46393L32.3154 3.99962L32.551 3.4797C31.8554 3.20281 31.1395 2.95774 30.4043 2.74654M15.3808 3.68524C19.9673 1.7186 25.2332 1.26184 30.4043 2.74654L15.3808 3.68524Z" fill="#EFE055"/>
<path fill-rule="evenodd" clip-rule="evenodd" d="M13.0806 3.71138L13.8967 5.23394L12.9051 5.7654L12.636 5.26328C11.9933 5.64806 11.3631 6.0679 10.7487 6.52329C6.42988 9.72968 3.59465 14.1907 2.37117 19.0287L2.96611 19.1139L2.80669 20.2275L0.998857 19.9687L1.13208 19.375C2.3254 14.0565 5.359 9.12343 10.0785 5.61975L10.0788 5.61949C10.8886 5.01929 11.7245 4.47797 12.5798 3.99449L13.0806 3.71138Z" fill="#EFE055"/>
<path fill-rule="evenodd" clip-rule="evenodd" d="M0.92988 21.0656L2.64681 21.273L2.51189 22.3899L1.94487 22.3214C1.89057 23.0685 1.87188 23.8249 1.89238 24.589C2.034 29.9678 4.05537 34.8517 7.31204 38.6326L7.72407 38.1945L8.54358 38.9652L7.29256 40.2954L6.88334 39.8455C3.21614 35.8132 0.922596 30.4964 0.767782 24.6192M0.92988 21.0656L0.874017 21.6385L0.92988 21.0656ZM0.874017 21.6385C0.778709 22.6159 0.740745 23.6109 0.767782 24.6192L0.874017 21.6385Z" fill="#EFE055"/>
<path fill-rule="evenodd" clip-rule="evenodd" d="M34.9051 3.42925L35.4058 3.71213C36.2614 4.19548 37.0973 4.73684 37.907 5.33701L37.9073 5.33726C42.627 8.84093 45.6608 13.774 46.8537 19.0925L46.9869 19.6862L45.1795 19.945L45.0201 18.8314L45.6147 18.7462C44.3915 13.9082 41.5561 9.4471 37.2369 6.24069C36.6225 5.7853 35.9925 5.36551 35.3498 4.98089L35.0807 5.48312L34.0891 4.95167L34.9051 3.42925Z" fill="#EFE055"/>
<path fill-rule="evenodd" clip-rule="evenodd" d="M47.0563 20.7832L47.1122 21.356C47.2075 22.3335 47.2452 23.3282 47.2182 24.3365C47.0633 30.2138 44.7701 35.5307 41.1024 39.563L40.6932 40.0129L39.4422 38.6827L40.2617 37.912L40.6738 38.3501C43.9308 34.5692 45.9518 29.6857 46.0936 24.3068C46.1141 23.5427 46.0955 22.786 46.0413 22.0389L45.4743 22.1074L45.3394 20.9906L47.0563 20.7832Z" fill="#EFE055"/>
<path d="M39.8057 40.9492C35.6614 44.8342 30.129 47.1749 24 47.1749C17.8846 47.1749 12.3221 44.8066 8.18091 40.937L39.8057 40.9492Z" fill="#F6E548"/>
<path d="M24.6071 36.9266L31.2661 22.9075C32.1665 28.8666 33.6242 33.154 41.355 32.6253L33.2383 8.6167L24.6069 23.6505L15.9756 8.6167L7.85889 32.6253C15.5901 33.154 17.0476 28.8668 17.9478 22.9075L24.6071 36.9266Z" fill="#FD0402"/>
<path fill-rule="evenodd" clip-rule="evenodd" d="M15.8423 7.25488L24.6069 22.5209L33.3717 7.2549L42.1217 33.1368L41.3935 33.1866C37.4184 33.4585 34.913 32.4953 33.3152 30.5573C32.0764 29.0547 31.4422 27.0272 31.0085 24.7611L24.6071 38.2378L18.2056 24.7612C17.772 27.0273 17.1379 29.0548 15.899 30.5574C14.3013 32.4954 11.7958 33.4585 7.82057 33.1866L7.09229 33.1368L15.8423 7.25488ZM33.1051 9.97881L24.6069 24.7804L16.109 9.97883L8.63027 32.1003C11.9297 32.1954 13.8286 31.3002 15.031 29.8418C16.3639 28.2251 16.9403 25.812 17.3917 22.8236L17.6665 21.0043L24.6071 35.6158L31.5474 21.0044L31.8223 22.8236C32.2739 25.8119 32.8503 28.2249 34.1832 29.8417C35.3857 31.3002 37.2845 32.1954 40.5837 32.1003L33.1051 9.97881Z" fill="#EFE055"/>
</g>
</g>
</g>
<defs>
<clipPath id="clip0_4_149">
<rect width="48" height="48" fill="white"/>
</clipPath>
<clipPath id="clip1_4_149">
<rect width="48" height="48" fill="white"/>
</clipPath>
<clipPath id="clip2_4_149">
<rect width="47.9333" height="48" fill="white"/>
</clipPath>
</defs>
</svg>
